<svg width="60" height="60" viewBox="0 0 60 60" fill="none" xmlns="http://www.w3.org/2000/svg">
<path d="M30 5.42169C37.9518 5.42169 39.0361 5.42169 42.2892 5.42169C45.1807 5.42169 46.6265 6.14458 47.7108 6.50603C49.1566 7.22892 50.241 7.59036 51.3253 8.6747C52.4096 9.75904 53.1325 10.8434 53.494 12.2892C53.8554 13.3735 54.2169 14.8193 54.5783 17.7108C54.5783 20.9639 54.5783 21.6867 54.5783 30C54.5783 38.3133 54.5783 39.0361 54.5783 42.2892C54.5783 45.1807 53.8554 46.6265 53.494 47.7108C52.7711 49.1566 52.4096 50.241 51.3253 51.3253C50.241 52.4096 49.1566 53.1325 47.7108 53.494C46.6265 53.8554 45.1807 54.2169 42.2892 54.5783C39.0361 54.5783 38.3133 54.5783 30 54.5783C21.6867 54.5783 20.9639 54.5783 17.7108 54.5783C14.8193 54.5783 13.3735 53.8554 12.2892 53.494C10.8434 52.7711 9.75904 52.4096 8.6747 51.3253C7.59036 50.241 6.86747 49.1566 6.50603 47.7108C6.14458 46.6265 5.78313 45.1807 5.42169 42.2892C5.42169 39.0361 5.42169 38.3133 5.42169 30C5.42169 21.6867 5.42169 20.9639 5.42169 17.7108C5.42169 14.8193 6.14458 13.3735 6.50603 12.2892C7.22892 10.8434 7.59036 9.75904 8.6747 8.6747C9.75904 7.59036 10.8434 6.86747 12.2892 6.50603C13.3735 6.14458 14.8193 5.78313 17.7108 5.42169C20.9639 5.42169 22.0482 5.42169 30 5.42169ZM30 0C21.6867 0 20.9639 0 17.7108 0C14.4578 0 12.2892 0.722894 10.4819 1.44579C8.6747 2.16868 6.86747 3.25301 5.06024 5.06024C3.25301 6.86747 2.53012 8.31326 1.44579 10.4819C0.722894 12.2892 0.361446 14.4578 0 17.7108C0 20.9639 0 22.0482 0 30C0 38.3133 0 39.0361 0 42.2892C0 45.5422 0.722894 47.7108 1.44579 49.5181C2.16868 51.3253 3.25301 53.1325 5.06024 54.9398C6.86747 56.747 8.31326 57.4699 10.4819 58.5542C12.2892 59.2771 14.4578 59.6385 17.7108 60C20.9639 60 22.0482 60 30 60C37.9518 60 39.0361 60 42.2892 60C45.5422 60 47.7108 59.2771 49.5181 58.5542C51.3253 57.8313 53.1325 56.747 54.9398 54.9398C56.747 53.1325 57.4699 51.6868 58.5542 49.5181C59.2771 47.7108 59.6385 45.5422 60 42.2892C60 39.0361 60 37.9518 60 30C60 22.0482 60 20.9639 60 17.7108C60 14.4578 59.2771 12.2892 58.5542 10.4819C57.8313 8.6747 56.747 6.86747 54.9398 5.06024C53.1325 3.25301 51.6868 2.53012 49.5181 1.44579C47.7108 0.722894 45.5422 0.361446 42.2892 0C39.0361 0 38.3133 0 30 0Z" fill="white"/>
<path d="M30 14.4578C21.3253 14.4578 14.4578 21.3253 14.4578 30C14.4578 38.6747 21.3253 45.5422 30 45.5422C38.6747 45.5422 45.5422 38.6747 45.5422 30C45.5422 21.3253 38.6747 14.4578 30 14.4578ZM30 40.1205C24.5783 40.1205 19.8795 35.7831 19.8795 30C19.8795 24.5783 24.2169 19.8795 30 19.8795C35.4217 19.8795 40.1205 24.2169 40.1205 30C40.1205 35.4217 35.4217 40.1205 30 40.1205Z" fill="white"/>
<path d="M45.9036 17.7108C47.8998 17.7108 49.5181 16.0926 49.5181 14.0964C49.5181 12.1002 47.8998 10.4819 45.9036 10.4819C43.9074 10.4819 42.2892 12.1002 42.2892 14.0964C42.2892 16.0926 43.9074 17.7108 45.9036 17.7108Z" fill="white"/>
</svg>
