<svg width="72" height="72" viewBox="0 0 72 72" fill="none" xmlns="http://www.w3.org/2000/svg">
<rect width="72" height="72" rx="36" fill="white"/>
<rect x="16.8" y="16.7998" width="38.4" height="38.4" rx="19.2" fill="white"/>
<path d="M30.912 28.3198C31.6593 28.3198 32.3415 28.3849 32.9586 28.5137C33.5756 28.6425 34.1025 28.854 34.5421 29.1482C34.9816 29.4424 35.3227 29.8329 35.5654 30.321C35.808 30.8091 35.9287 31.4111 35.9287 32.1283C35.9287 32.9025 35.7484 33.5478 35.3893 34.0644C35.0301 34.581 34.4977 35.004 33.7947 35.3334C34.7625 35.606 35.485 36.0832 35.9619 36.7638C36.4389 37.4444 36.6774 38.2661 36.6774 39.2273C36.6774 40.0015 36.5235 40.6726 36.2157 41.2393C35.9079 41.8061 35.4933 42.2684 34.9719 42.6263C34.4506 42.9856 33.8571 43.25 33.1901 43.4222C32.519 43.5944 31.8271 43.6812 31.1338 43.6798H23.52V28.3198H30.912ZM30.4724 34.5362C31.0881 34.5362 31.5942 34.3925 31.9907 34.1064C32.3873 33.819 32.5856 33.354 32.5842 32.7086C32.5842 32.3507 32.5176 32.0564 32.3859 31.8273C32.2542 31.5982 32.0781 31.4179 31.8576 31.2891C31.6371 31.1602 31.3848 31.0708 31.0991 31.0206C30.8052 30.9704 30.5071 30.9447 30.2076 30.946H26.9754V34.5389L30.4724 34.5362ZM30.6707 41.0536C30.9965 41.055 31.321 41.0224 31.6385 40.9573C31.9464 40.8923 32.2181 40.7852 32.4525 40.6347C32.6868 40.4842 32.874 40.2794 33.014 40.0218C33.1527 39.7642 33.2234 39.4334 33.2234 39.0321C33.2234 38.2444 32.996 37.6803 32.5412 37.3441C32.0864 37.0065 31.4846 36.8384 30.7372 36.8384H26.9754V41.055L30.6707 41.0536ZM41.023 40.7309C41.4917 41.1756 42.167 41.398 43.0474 41.398C43.6783 41.398 44.2205 41.2434 44.6753 40.9356C45.1301 40.6279 45.4088 40.3011 45.5114 39.9568H48.261C47.8215 41.2909 47.1462 42.244 46.2366 42.8175C45.327 43.391 44.2274 43.6785 42.9365 43.6785C42.0422 43.6785 41.2352 43.5388 40.5169 43.2595C39.7986 42.9802 39.1899 42.5816 38.6908 42.065C38.1916 41.5485 37.8061 40.9329 37.5357 40.2157C37.2653 39.4985 37.1295 38.7094 37.1295 37.8498C37.1295 37.0187 37.2681 36.2445 37.5468 35.5273C37.8255 34.8101 38.2221 34.1905 38.7351 33.6671C39.2482 33.1438 39.861 32.7316 40.5724 32.4306C41.2837 32.1297 42.0727 31.9792 42.9379 31.9792C43.9057 31.9792 44.7488 32.1622 45.4684 32.5283C46.1867 32.8943 46.7774 33.3851 47.2391 34.002C47.7009 34.6189 48.035 35.3212 48.2402 36.1103C48.4455 36.8994 48.5189 37.7237 48.4607 38.5847H40.2548C40.2978 39.5703 40.5543 40.2876 41.023 40.7309ZM44.5547 34.8806C44.1803 34.4793 43.6118 34.2786 42.8492 34.2786C42.35 34.2786 41.9354 34.3613 41.6068 34.5254C41.2768 34.6908 41.0133 34.8942 40.815 35.1382C40.6167 35.3822 40.4781 35.6398 40.3977 35.9124C40.3172 36.1849 40.2687 36.4289 40.2548 36.6431H45.3367C45.1883 35.8703 44.9277 35.2819 44.5547 34.8806ZM39.7196 29.0994H46.0688V30.8213H39.7196V29.0994Z" fill="black"/>
</svg>
