<svg width="72" height="72" viewBox="0 0 72 72" fill="none" xmlns="http://www.w3.org/2000/svg">
<rect width="72" height="72" rx="36" fill="white"/>
<path fill-rule="evenodd" clip-rule="evenodd" d="M20.0594 33.2693C29.9818 28.9463 36.5982 26.0963 39.9088 24.7193C49.3611 20.7878 51.3253 20.1048 52.6054 20.0823C52.887 20.0773 53.5166 20.1471 53.9244 20.478C54.2687 20.7574 54.3634 21.1348 54.4088 21.3997C54.4541 21.6647 54.5106 22.2681 54.4657 22.7397C53.9535 28.1216 51.7371 41.1823 50.6095 47.2102C50.1324 49.7609 49.1929 50.6161 48.2834 50.6998C46.3068 50.8817 44.8059 49.3935 42.8915 48.1386C39.8958 46.1749 38.2035 44.9525 35.2957 43.0363C31.9352 40.8218 34.1136 39.6047 36.0288 37.6155C36.53 37.095 45.2388 29.1736 45.4073 28.4551C45.4284 28.3652 45.448 28.0302 45.249 27.8533C45.05 27.6764 44.7562 27.7369 44.5443 27.785C44.2438 27.8532 39.4582 31.0163 30.1874 37.2743C28.829 38.2071 27.5986 38.6616 26.4963 38.6378C25.281 38.6115 22.9433 37.9506 21.2054 37.3857C19.0739 36.6928 17.3797 36.3265 17.5273 35.1498C17.6041 34.5369 18.4481 33.91 20.0594 33.2693Z" fill="black"/>
</svg>
