<svg width="72" height="72" viewBox="0 0 72 72" fill="none" xmlns="http://www.w3.org/2000/svg">
<rect width="72" height="72" rx="36" fill="white"/>
<g clip-path="url(#clip0_64_172)">
<path d="M36.0001 20.2602C41.1297 20.2602 41.7319 20.2831 43.7593 20.3746C45.6344 20.4584 46.6481 20.7709 47.3265 21.0377C48.2259 21.3883 48.8661 21.7999 49.5369 22.4706C50.2076 23.1414 50.6268 23.7816 50.9698 24.681C51.229 25.3594 51.5491 26.3731 51.6329 28.2482C51.7244 30.2756 51.7473 30.8778 51.7473 36.0074C51.7473 41.1371 51.7244 41.7392 51.6329 43.7667C51.5491 45.6417 51.2366 46.6555 50.9698 47.3338C50.6192 48.2332 50.2076 48.8735 49.5369 49.5442C48.8661 50.215 48.2259 50.6342 47.3265 50.9772C46.6481 51.2363 45.6344 51.5565 43.7593 51.6403C41.7319 51.7318 41.1297 51.7546 36.0001 51.7546C30.8704 51.7546 30.2683 51.7318 28.2408 51.6403C26.3658 51.5565 25.352 51.2439 24.6737 50.9772C23.7743 50.6266 23.134 50.215 22.4633 49.5442C21.7925 48.8735 21.3733 48.2332 21.0303 47.3338C20.7712 46.6555 20.451 45.6417 20.3672 43.7667C20.2757 41.7392 20.2529 41.1371 20.2529 36.0074C20.2529 30.8778 20.2757 30.2756 20.3672 28.2482C20.451 26.3731 20.7635 25.3594 21.0303 24.681C21.3809 23.7816 21.7925 23.1414 22.4633 22.4706C23.134 21.7999 23.7743 21.3807 24.6737 21.0377C25.352 20.7785 26.3658 20.4584 28.2408 20.3746C30.2683 20.2755 30.878 20.2602 36.0001 20.2602ZM36.0001 16.7998C30.7866 16.7998 30.1311 16.8227 28.0807 16.9141C26.038 17.0056 24.6432 17.3333 23.4236 17.8059C22.1584 18.2937 21.0913 18.9569 20.0242 20.0239C18.9571 21.091 18.3016 22.1657 17.8062 23.4234C17.3336 24.6429 17.0058 26.0378 16.9144 28.0881C16.8229 30.1308 16.8 30.7863 16.8 35.9998C16.8 41.2133 16.8229 41.8688 16.9144 43.9191C17.0058 45.9619 17.3336 47.3567 17.8062 48.5838C18.294 49.8491 18.9571 50.9162 20.0242 51.9833C21.0913 53.0504 22.166 53.7059 23.4236 54.2013C24.6432 54.6739 26.038 55.0016 28.0883 55.0931C30.1387 55.1846 30.7866 55.2074 36.0077 55.2074C41.2288 55.2074 41.8767 55.1846 43.927 55.0931C45.9697 55.0016 47.3646 54.6739 48.5917 54.2013C49.857 53.7135 50.9241 53.0504 51.9912 51.9833C53.0583 50.9162 53.7138 49.8415 54.2092 48.5838C54.6818 47.3643 55.0095 45.9695 55.101 43.9191C55.1925 41.8688 55.2153 41.2209 55.2153 35.9998C55.2153 30.7787 55.1925 30.1308 55.101 28.0805C55.0095 26.0378 54.6818 24.6429 54.2092 23.4158C53.7214 22.1505 53.0583 21.0834 51.9912 20.0163C50.9241 18.9492 49.8494 18.2937 48.5917 17.7983C47.3722 17.3257 45.9774 16.998 43.927 16.9065C41.8691 16.8227 41.2136 16.7998 36.0001 16.7998Z" fill="black"/>
<path d="M36.0001 20.2602C41.1297 20.2602 41.7319 20.2831 43.7593 20.3746C45.6344 20.4584 46.6481 20.7709 47.3265 21.0377C48.2259 21.3883 48.8661 21.7999 49.5369 22.4706C50.2076 23.1414 50.6268 23.7816 50.9698 24.681C51.229 25.3594 51.5491 26.3731 51.6329 28.2482C51.7244 30.2756 51.7473 30.8778 51.7473 36.0074C51.7473 41.1371 51.7244 41.7392 51.6329 43.7667C51.5491 45.6417 51.2366 46.6555 50.9698 47.3338C50.6192 48.2332 50.2076 48.8735 49.5369 49.5442C48.8661 50.215 48.2259 50.6342 47.3265 50.9772C46.6481 51.2363 45.6344 51.5565 43.7593 51.6403C41.7319 51.7318 41.1297 51.7546 36.0001 51.7546C30.8704 51.7546 30.2683 51.7318 28.2408 51.6403C26.3658 51.5565 25.352 51.2439 24.6737 50.9772C23.7743 50.6266 23.134 50.215 22.4633 49.5442C21.7925 48.8735 21.3733 48.2332 21.0303 47.3338C20.7712 46.6555 20.451 45.6417 20.3672 43.7667C20.2757 41.7392 20.2529 41.1371 20.2529 36.0074C20.2529 30.8778 20.2757 30.2756 20.3672 28.2482C20.451 26.3731 20.7635 25.3594 21.0303 24.681C21.3809 23.7816 21.7925 23.1414 22.4633 22.4706C23.134 21.7999 23.7743 21.3807 24.6737 21.0377C25.352 20.7785 26.3658 20.4584 28.2408 20.3746C30.2683 20.2755 30.878 20.2602 36.0001 20.2602Z" fill="black"/>
<path d="M36.0002 26.1445C30.558 26.1445 26.1372 30.5577 26.1372 36.0075C26.1372 41.4573 30.5504 45.8704 36.0002 45.8704C41.4499 45.8704 45.8631 41.4573 45.8631 36.0075C45.8631 30.5577 41.4499 26.1445 36.0002 26.1445ZM36.0002 42.4024C32.4635 42.4024 29.5976 39.5365 29.5976 35.9999C29.5976 32.4632 32.4635 29.5973 36.0002 29.5973C39.5368 29.5973 42.4027 32.4632 42.4027 35.9999C42.4027 39.5365 39.5368 42.4024 36.0002 42.4024Z" fill="white"/>
<path d="M46.2518 28.05C47.5231 28.05 48.5537 27.0194 48.5537 25.7482C48.5537 24.4769 47.5231 23.4463 46.2518 23.4463C44.9805 23.4463 43.95 24.4769 43.95 25.7482C43.95 27.0194 44.9805 28.05 46.2518 28.05Z" fill="white"/>
</g>
<defs>
<clipPath id="clip0_64_172">
<rect width="38.4" height="38.4" fill="white" transform="translate(16.8 16.7998)"/>
</clipPath>
</defs>
</svg>
