<svg width="72" height="72" viewBox="0 0 72 72" fill="none" xmlns="http://www.w3.org/2000/svg">
<rect width="72" height="72" rx="36" fill="white"/>
<g clip-path="url(#clip0_64_185)">
<path d="M35.9921 16.7998C25.3773 16.7998 16.8 25.3928 16.8 35.9919C16.8 44.1268 21.8548 51.0771 28.9945 53.8729C28.8208 52.3565 28.6786 50.0187 29.0577 48.3602C29.4052 46.8595 31.3007 38.8194 31.3007 38.8194C31.3007 38.8194 30.7321 37.6663 30.7321 35.9761C30.7321 33.3066 32.2801 31.3163 34.2072 31.3163C35.85 31.3163 36.6398 32.5484 36.6398 34.0174C36.6398 35.6602 35.5972 38.1244 35.0444 40.4148C34.5863 42.3261 36.008 43.8899 37.8877 43.8899C41.2996 43.8899 43.9217 40.2884 43.9217 35.1073C43.9217 30.5107 40.6204 27.3041 35.8974 27.3041C30.432 27.3041 27.2254 31.3953 27.2254 35.6286C27.2254 37.2714 27.8572 39.0405 28.647 40.0041C28.805 40.1936 28.8208 40.3674 28.7734 40.5569C28.6312 41.1572 28.2995 42.4682 28.2363 42.7368C28.1573 43.0843 27.952 43.1633 27.5887 42.9895C25.2193 41.8522 23.7345 38.3455 23.7345 35.5338C23.7345 29.484 28.1257 23.9238 36.4186 23.9238C43.0688 23.9238 48.2498 28.6626 48.2498 35.0125C48.2498 41.6311 44.0797 46.9543 38.2984 46.9543C36.3554 46.9543 34.5231 45.9434 33.9071 44.7429C33.9071 44.7429 32.9435 48.4075 32.7066 49.3079C32.2801 50.9823 31.1112 53.0673 30.3214 54.3468C32.1221 54.8997 34.0176 55.1998 36.008 55.1998C46.607 55.1998 55.2001 46.6068 55.2001 36.0077C55.1843 25.3928 46.5912 16.7998 35.9921 16.7998Z" fill="black"/>
</g>
<defs>
<clipPath id="clip0_64_185">
<rect width="38.4" height="38.4" fill="white" transform="translate(16.8 16.7998)"/>
</clipPath>
</defs>
</svg>
