<svg width="72" height="72" viewBox="0 0 72 72" fill="none" xmlns="http://www.w3.org/2000/svg">
<rect width="72" height="72" rx="36" fill="white"/>
<path d="M37.5832 46.9141C37.5832 46.9141 38.2762 46.8385 38.6312 46.4643C38.9561 46.1214 38.9448 45.4743 38.9448 45.4743C38.9448 45.4743 38.9017 42.4527 40.3309 42.0065C41.7395 41.5677 43.5482 44.9286 45.4676 46.2209C46.9176 47.198 48.0182 46.9842 48.0182 46.9842L53.1474 46.9141C53.1474 46.9141 55.8294 46.7519 54.5579 44.6815C54.4527 44.5119 53.816 43.1495 50.7452 40.351C47.528 37.4215 47.9599 37.8953 51.8327 32.8273C54.1916 29.7412 55.1345 27.857 54.8396 27.0514C54.5597 26.2808 52.8243 26.4854 52.8243 26.4854L47.0509 26.5204C47.0509 26.5204 46.6227 26.4633 46.3053 26.6495C45.9954 26.832 45.7944 27.2579 45.7944 27.2579C45.7944 27.2579 44.8817 29.6453 43.6628 31.6769C41.0916 35.9614 40.0642 36.1882 39.6435 35.9227C38.665 35.3014 38.9092 33.4302 38.9092 32.1009C38.9092 27.9474 39.5515 26.2162 37.6602 25.7682C37.0329 25.6189 36.5709 25.5212 34.9651 25.5046C32.9047 25.4843 31.1618 25.512 30.1739 25.9858C29.5166 26.301 29.0095 27.0053 29.3194 27.0458C29.7006 27.0956 30.5646 27.2745 31.0228 27.8865C31.6144 28.6774 31.5938 30.4509 31.5938 30.4509C31.5938 30.4509 31.9337 35.3401 30.7993 35.9467C30.0218 36.3633 28.955 35.5134 26.6618 31.6253C25.4879 29.6342 24.6015 27.433 24.6015 27.433C24.6015 27.433 24.4305 27.0219 24.1244 26.8007C23.7544 26.5333 23.2379 26.4504 23.2379 26.4504L17.7519 26.4854C17.7519 26.4854 16.9274 26.5075 16.625 26.8596C16.3564 27.1712 16.6043 27.8183 16.6043 27.8183C16.6043 27.8183 20.8996 37.6833 25.764 42.6554C30.2246 47.2128 35.2881 46.9141 35.2881 46.9141H37.5832Z" fill="black"/>
</svg>
