<svg width="72" height="73" viewBox="0 0 72 73" fill="none" xmlns="http://www.w3.org/2000/svg">
<path d="M4.15997 0.364227C3.57759 0.509819 2.63122 1.0922 2.08524 1.60178C-0.171474 3.67651 -0.0622779 1.67458 0.0469181 36.5081C0.156114 68.0293 0.156114 68.3569 0.920486 69.3397C1.32087 69.8857 2.12164 70.6865 2.66762 71.0868C3.65039 71.8512 3.97797 71.8512 35.7904 71.9604L67.9304 72.0332L69.1316 71.2324C69.7868 70.7592 70.6967 69.9221 71.0971 69.3761C71.8615 68.3569 71.8615 68.1385 71.9707 37.5273C72.0435 20.5655 71.9707 6.00602 71.8615 5.13245C71.5703 3.13052 69.714 0.983002 67.7485 0.400627C66.0013 -0.108955 5.9071 -0.145355 4.15997 0.364227ZM53.1162 5.71483C59.6315 8.04435 64.5818 13.2494 66.5837 19.8375C67.3117 22.3126 67.3481 22.9678 67.2389 36.9449L67.1297 51.468L66.0741 54.0159C63.4898 60.3128 58.94 64.5351 52.3882 66.7918C50.5683 67.4106 49.1487 67.4834 36.0088 67.4834C20.3938 67.4834 20.3574 67.4834 15.9531 65.2631C12.1313 63.3703 8.05463 59.0025 6.27109 54.9258C4.63315 51.1768 4.52395 49.9392 4.52395 36.1805C4.52395 21.6938 4.59675 21.0023 6.78067 16.3796C8.38221 12.9946 12.5317 8.69952 15.7347 7.09798C20.3574 4.76846 20.9034 4.73206 36.5548 4.80486C50.3863 4.87766 50.8231 4.91406 53.1162 5.71483Z" fill="#ECECEC"/>
</svg>
