<svg width="72" height="72" viewBox="0 0 72 72" fill="none" xmlns="http://www.w3.org/2000/svg">
<rect width="72" height="72" rx="36" fill="white"/>
<g clip-path="url(#clip0_64_191)">
<path fill-rule="evenodd" clip-rule="evenodd" d="M54.432 36.4361C54.432 35.0746 54.3098 33.7655 54.0829 32.5088H36V39.9357H46.3331C45.888 42.3357 44.5353 44.3692 42.5018 45.7306V50.5481H48.7069C52.3375 47.2055 54.432 42.2833 54.432 36.4361Z" fill="black"/>
<path fill-rule="evenodd" clip-rule="evenodd" d="M36.0001 55.2C41.1841 55.2 45.5303 53.4807 48.707 50.5483L42.5019 45.7309C40.7827 46.8829 38.5834 47.5636 36.0001 47.5636C30.9994 47.5636 26.7666 44.1861 25.2568 39.6479H18.8423V44.6225C22.0016 50.8974 28.4946 55.2 36.0001 55.2Z" fill="black"/>
<path fill-rule="evenodd" clip-rule="evenodd" d="M25.2568 39.648C24.8728 38.496 24.6546 37.2654 24.6546 36C24.6546 34.7345 24.8728 33.504 25.2568 32.352V27.3774H18.8422C17.5419 29.9694 16.8 32.9018 16.8 36C16.8 39.0982 17.5419 42.0305 18.8422 44.6225L25.2568 39.648Z" fill="black"/>
<path fill-rule="evenodd" clip-rule="evenodd" d="M36.0001 24.4362C38.819 24.4362 41.3499 25.4049 43.3397 27.3074L48.8467 21.8005C45.5216 18.7024 41.1754 16.7998 36.0001 16.7998C28.4946 16.7998 22.0016 21.1024 18.8423 27.3773L25.2568 32.3518C26.7666 27.8136 30.9994 24.4362 36.0001 24.4362Z" fill="black"/>
</g>
<defs>
<clipPath id="clip0_64_191">
<rect width="38.4" height="38.4" fill="white" transform="translate(16.8 16.7998)"/>
</clipPath>
</defs>
</svg>
