<svg width="72" height="72" viewBox="0 0 72 72" fill="none" xmlns="http://www.w3.org/2000/svg">
<rect width="72" height="72" rx="36" fill="white"/>
<g clip-path="url(#clip0_64_182)">
<path d="M44.3844 16.7998H37.755V42.9563C37.755 46.0729 35.2053 48.6329 32.0323 48.6329C28.8593 48.6329 26.3095 46.0729 26.3095 42.9563C26.3095 39.8955 28.8026 37.3911 31.8623 37.2798V30.7129C25.1196 30.8241 19.6802 36.2224 19.6802 42.9563C19.6802 49.7459 25.233 55.1998 32.089 55.1998C38.9449 55.1998 44.4977 49.6903 44.4977 42.9563V29.5441C46.9908 31.325 50.0505 32.3824 53.2802 32.4381V25.8711C48.294 25.7042 44.3844 21.6972 44.3844 16.7998Z" fill="black"/>
</g>
<defs>
<clipPath id="clip0_64_182">
<rect width="38.4" height="38.4" fill="white" transform="translate(16.8 16.7998)"/>
</clipPath>
</defs>
</svg>
