<svg width="26" height="20" viewBox="0 0 26 20" fill="none" xmlns="http://www.w3.org/2000/svg">
<path d="M25.2899 2.41786C25.9154 2.11164 26.1767 1.35066 25.874 0.718184C25.5712 0.0857075 24.8189 -0.178768 24.1935 0.127463L25.2899 2.41786ZM7.49932 18.7276L6.41861 19.3789C6.65108 19.7735 7.07573 20.0107 7.5297 19.9996C7.98369 19.9884 8.39651 19.7307 8.60988 19.3254L7.49932 18.7276ZM2.06976 10.3454C1.53889 9.89204 0.745163 9.95973 0.29689 10.4966C-0.151384 11.0335 -0.0844419 11.8363 0.446407 12.2897L2.06976 10.3454ZM24.1935 0.127463C14.7342 4.75955 9.00294 13.1622 6.38878 18.1297L8.60988 19.3254C11.1035 14.5869 16.5112 6.71672 25.2899 2.41786L24.1935 0.127463ZM8.58004 18.0761C6.86854 15.1715 4.69908 12.591 2.06976 10.3454L0.446407 12.2897C2.86714 14.3571 4.85317 16.7221 6.41861 19.3789L8.58004 18.0761Z" fill="white"/>
</svg>
