<svg width="66" height="54" viewBox="0 0 66 54" fill="none" xmlns="http://www.w3.org/2000/svg">
<path d="M3.83523 28.9545C3.83523 25.733 4.25284 22.7713 5.08807 20.0696C5.93182 17.3594 7.13352 14.8665 8.69318 12.5909H11.3523C10.7386 13.4347 10.1634 14.4744 9.62642 15.7102C9.09801 16.9375 8.63352 18.2884 8.23295 19.7628C7.83239 21.2287 7.51705 22.7457 7.28693 24.3139C7.06534 25.8821 6.95455 27.429 6.95455 28.9545C6.95455 30.983 7.15057 33.0412 7.54261 35.1293C7.93466 37.2173 8.46307 39.1562 9.12784 40.946C9.79261 42.7358 10.5341 44.1932 11.3523 45.3182H8.69318C7.13352 43.0426 5.93182 40.554 5.08807 37.8523C4.25284 35.142 3.83523 32.1761 3.83523 28.9545ZM61.4425 28.9545C61.4425 32.1761 61.0206 35.142 60.1769 37.8523C59.3417 40.554 58.1442 43.0426 56.5846 45.3182H53.9255C54.5391 44.4744 55.1101 43.4347 55.6385 42.1989C56.1755 40.9716 56.6442 39.625 57.0448 38.1591C57.4454 36.6847 57.7564 35.1634 57.978 33.5952C58.2081 32.0185 58.3232 30.4716 58.3232 28.9545C58.3232 26.9261 58.1272 24.8679 57.7351 22.7798C57.3431 20.6918 56.8147 18.7528 56.1499 16.9631C55.4851 15.1733 54.7437 13.7159 53.9255 12.5909H56.5846C58.1442 14.8665 59.3417 17.3594 60.1769 20.0696C61.0206 22.7713 61.4425 25.733 61.4425 28.9545Z" fill="#1C31EA"/>
<path d="M12.7812 23.7891V21H25.9219V23.7891H21.0234V37H17.6797V23.7891H12.7812ZM28.5566 21L32.4238 33.1562H32.5722L36.4472 21H40.1972L34.6816 37H30.3222L24.7987 21H28.5566ZM48.3827 25.6016C48.3202 24.9714 48.0519 24.4818 47.578 24.1328C47.104 23.7839 46.4608 23.6094 45.6483 23.6094C45.0962 23.6094 44.6301 23.6875 44.2498 23.8437C43.8696 23.9948 43.578 24.2057 43.3748 24.4766C43.1769 24.7474 43.078 25.0547 43.078 25.3984C43.0676 25.6849 43.1274 25.9349 43.2577 26.1484C43.3931 26.362 43.578 26.5469 43.8123 26.7031C44.0467 26.8542 44.3176 26.987 44.6248 27.1016C44.9321 27.2109 45.2603 27.3047 45.6092 27.3828L47.0467 27.7266C47.7446 27.8828 48.3853 28.0911 48.9686 28.3516C49.5519 28.612 50.0571 28.9323 50.4842 29.3125C50.9113 29.6927 51.242 30.1406 51.4764 30.6562C51.716 31.1719 51.8384 31.763 51.8436 32.4297C51.8384 33.4089 51.5884 34.2578 51.0936 34.9766C50.604 35.6901 49.8957 36.2448 48.9686 36.6406C48.0467 37.0312 46.9347 37.2266 45.6327 37.2266C44.341 37.2266 43.216 37.0286 42.2577 36.6328C41.3045 36.237 40.5597 35.651 40.0233 34.875C39.492 34.0937 39.2134 33.1276 39.1873 31.9766H42.4608C42.4972 32.513 42.6509 32.9609 42.9217 33.3203C43.1978 33.6745 43.5649 33.9427 44.0233 34.125C44.4868 34.3021 45.0103 34.3906 45.5936 34.3906C46.1665 34.3906 46.6639 34.3073 47.0858 34.1406C47.5129 33.974 47.8436 33.7422 48.078 33.4453C48.3123 33.1484 48.4295 32.8073 48.4295 32.4219C48.4295 32.0625 48.3228 31.7604 48.1092 31.5156C47.9009 31.2708 47.5936 31.0625 47.1873 30.8906C46.7863 30.7187 46.2941 30.5625 45.7108 30.4219L43.9686 29.9844C42.6196 29.6562 41.5545 29.1432 40.7733 28.4453C39.992 27.7474 39.604 26.8073 39.6092 25.625C39.604 24.6562 39.8618 23.8099 40.3827 23.0859C40.9087 22.362 41.6301 21.7969 42.5467 21.3906C43.4634 20.9844 44.5051 20.7812 45.6717 20.7812C46.8592 20.7812 47.8957 20.9844 48.7811 21.3906C49.6717 21.7969 50.3644 22.362 50.8592 23.0859C51.354 23.8099 51.6092 24.6484 51.6248 25.6016H48.3827Z" fill="white"/>
</svg>
