<svg width="1022" height="839" viewBox="0 0 1022 839" fill="none" xmlns="http://www.w3.org/2000/svg">
<path d="M59.5571 451.476C59.5571 401.448 66.0422 355.456 79.0124 313.502C92.115 271.415 110.776 232.702 134.996 197.365H176.289C166.76 210.468 157.826 226.614 149.488 245.805C141.283 264.863 134.07 285.841 127.849 308.737C121.629 331.501 116.732 355.059 113.159 379.411C109.717 403.764 107.997 427.785 107.997 451.476C107.997 482.975 111.041 514.937 117.129 547.362C123.217 579.788 131.423 609.897 141.746 637.691C152.069 665.484 163.584 688.116 176.289 705.586H134.996C110.776 670.249 92.115 631.603 79.0124 589.648C66.0422 547.561 59.5571 501.503 59.5571 451.476ZM954.139 451.476C954.139 501.503 947.587 547.561 934.485 589.648C921.515 631.603 902.92 670.249 878.7 705.586H837.407C846.936 692.483 855.803 676.337 864.009 657.146C872.347 638.088 879.626 617.177 885.847 594.413C892.067 571.516 896.898 547.892 900.339 523.54C903.912 499.055 905.699 475.034 905.699 451.476C905.699 419.976 902.655 388.014 896.567 355.589C890.479 323.163 882.273 293.054 871.95 265.26C861.627 237.467 850.112 214.835 837.407 197.365H878.7C902.92 232.702 921.515 271.415 934.485 313.502C947.587 355.456 954.139 401.448 954.139 451.476Z" fill="#1C31EA"/>
<g clip-path="url(#clip0_6_1475)">
<path d="M187.109 356.095V311.8H395.807V356.095H318.01V565.91H264.905V356.095H187.109ZM437.651 311.8L499.069 504.864H501.426L562.969 311.8H622.526L534.927 565.91H465.692L377.969 311.8H437.651ZM752.526 384.881C751.534 374.872 747.274 367.097 739.747 361.555C732.219 356.013 722.003 353.242 709.099 353.242C700.331 353.242 692.928 354.482 686.89 356.964C680.851 359.363 676.219 362.713 672.993 367.014C669.85 371.316 668.278 376.196 668.278 381.655C668.113 386.205 669.064 390.175 671.132 393.567C673.282 396.958 676.219 399.895 679.941 402.376C683.664 404.775 687.965 406.884 692.845 408.704C697.726 410.441 702.937 411.93 708.479 413.171L731.309 418.63C742.393 421.112 752.568 424.421 761.832 428.557C771.097 432.692 779.12 437.78 785.903 443.818C792.686 449.857 797.939 456.97 801.661 465.159C805.466 473.348 807.41 482.737 807.493 493.325C807.41 508.876 803.44 522.359 795.581 533.774C787.806 545.107 776.556 553.916 761.832 560.203C747.191 566.406 729.531 569.508 708.851 569.508C688.337 569.508 670.47 566.365 655.25 560.079C640.112 553.792 628.284 544.486 619.764 532.161C611.326 519.753 606.901 504.409 606.487 486.128H658.476C659.055 494.648 661.495 501.762 665.796 507.47C670.181 513.095 676.012 517.355 683.291 520.25C690.653 523.062 698.966 524.468 708.231 524.468C717.33 524.468 725.229 523.145 731.93 520.498C738.713 517.851 743.965 514.17 747.687 509.455C751.41 504.74 753.271 499.322 753.271 493.201C753.271 487.493 751.575 482.696 748.184 478.808C744.875 474.92 739.995 471.611 733.543 468.882C727.173 466.152 719.356 463.67 710.092 461.437L682.423 454.489C660.999 449.277 644.083 441.13 631.675 430.046C619.267 418.961 613.105 404.031 613.188 385.254C613.105 369.868 617.199 356.426 625.471 344.928C633.826 333.431 645.282 324.456 659.841 318.004C674.399 311.552 690.943 308.326 709.472 308.326C728.331 308.326 744.792 311.552 758.854 318.004C772.999 324.456 784.001 333.431 791.859 344.928C799.717 356.426 803.77 369.744 804.019 384.881H752.526Z" fill="white"/>
</g>
<defs>
<clipPath id="clip0_6_1475">
<rect width="698.803" height="331.932" fill="white" transform="translate(174.701 288.257)"/>
</clipPath>
</defs>
</svg>
