<svg width="24" height="26" viewBox="0 0 24 26" fill="none" xmlns="http://www.w3.org/2000/svg">
<path fill-rule="evenodd" clip-rule="evenodd" d="M19.1111 3.6909C17.7342 2.43919 15.6282 2.45032 14.2646 3.7165L4.60129 12.6896C2.08859 15.0228 2.07911 18.9966 4.58064 21.3418C6.86965 23.4877 10.4358 23.4737 12.7078 21.3098L21.747 12.7011C22.2802 12.1932 23.1242 12.2138 23.6321 12.7471C24.1399 13.2803 24.1193 14.1243 23.5861 14.6321L14.5469 23.2409C11.2508 26.38 6.07746 26.4003 2.7568 23.2872C-0.872177 19.885 -0.858422 14.1203 2.78676 10.7355L12.4501 1.76238C14.8289 -0.446503 18.5029 -0.465905 20.9049 1.71773C23.628 4.19322 23.6326 8.47413 20.9149 10.9555L11.2386 19.7904C9.77615 21.1257 7.52209 21.0744 6.12177 19.6741C4.64211 18.1945 4.68099 15.7838 6.20758 14.3526L15.088 6.02723C15.6252 5.52359 16.4689 5.55081 16.9726 6.08802C17.4762 6.62524 17.449 7.46902 16.9118 7.97266L8.03143 16.298C7.60384 16.6989 7.59296 17.3741 8.00739 17.7885C8.39961 18.1807 9.03094 18.1951 9.44056 17.8211L19.1168 8.98621C20.6747 7.56383 20.672 5.10991 19.1111 3.6909Z" fill="white"/>
</svg>
